<svg width="119" height="103" viewBox="0 0 119 103" fill="none" xmlns="http://www.w3.org/2000/svg">
  <path
    d="M61.4093 37.0801C61.2531 36.9239 60.7533 35.6223 60.5971 35.2995C44.1451 1.5 7.37801 2.63498 1.57816 17.8375C-2.94094 29.4788 16.5724 57.1348 61.4093 37.0801Z"
    fill="url(#paint0_linear_83_7529)"
  />
  <path
    d="M68.8335 33.9979C94.1363 22.6898 90.596 3.12437 83.9839 0.531621C75.2685 -2.86291 59.1498 10.2362 68.3441 33.0295C68.5107 33.1961 68.8335 33.8417 68.8335 33.9979Z"
    fill="url(#paint1_linear_83_7529)"
  />
  <path
    d="M44.6449 64.4654C39.9696 71.7438 36.4189 79.1784 33.9928 84.5201C33.8366 84.8429 33.8366 85.0095 33.6804 85.3323C32.8682 87.4357 32.056 89.0496 31.577 90.5074C30.9314 92.1214 31.7332 94.0685 33.5138 94.7037C34.7945 95.1931 36.5751 95.8387 38.6785 96.6509C38.9908 96.8071 39.1574 96.8071 39.4802 96.9633C45.1239 98.9 52.8709 101.003 61.2531 102.461C56.255 97.6193 52.2149 91.7778 49.3098 85.3219C46.4047 78.6995 44.7907 71.5876 44.6345 64.4654H44.6449Z"
    fill="url(#paint2_linear_83_7529)"
  />
  <path
    d="M115.43 55.5729C111.567 47.0033 104.622 40.7037 96.4062 37.7881C95.6045 37.4757 94.7923 37.3091 93.8239 37.3091C89.6276 37.3091 85.4417 40.8703 85.1189 45.2332C84.4733 52.6678 85.9311 60.1025 89.1486 67.3809C92.3661 74.5032 96.8852 80.48 102.539 84.9991C103.997 86.1341 105.923 86.6131 107.694 86.6131C111.088 86.6131 114.306 84.8429 115.597 81.7608C119.137 73.8263 119.304 64.2883 115.43 55.5521V55.5729Z"
    fill="url(#paint3_linear_83_7529)"
  />
  <path
    d="M79.621 71.9104C75.5913 62.8514 73.9774 53.6362 74.7896 44.5772C74.9458 41.9948 75.7579 39.5687 76.8825 37.4653C76.7263 37.4653 76.4035 37.6215 76.2369 37.6215C75.9141 37.7881 75.4352 37.7881 75.1124 37.9443C72.6862 38.5899 70.2809 39.7249 68.1775 40.8599C67.053 41.5159 66.0846 42.1614 64.96 42.807C59.483 46.5243 54.9639 52.9906 54.3183 59.7901C53.6623 67.0685 54.9639 74.5032 58.0252 81.615C61.0969 88.5706 65.6056 94.2351 71.0931 98.598C74.4772 101.347 80.4436 102.971 85.4521 102.971C90.9292 102.971 96.729 100.868 101.415 97.9525C101.415 97.9525 101.581 97.9525 101.581 97.7963C101.894 97.6297 102.227 97.3069 102.55 97.1403C102.706 96.9841 102.862 96.8279 103.029 96.8279C100.446 96.1719 98.1972 95.0473 96.2605 93.5791C89.1694 88.0813 83.5258 80.8028 79.6419 71.9104H79.621Z"
    fill="url(#paint4_linear_83_7529)"
  />
  <defs>
    <linearGradient
      id="paint0_linear_83_7529"
      x1="7.71012"
      y1="10.4132"
      x2="126.935"
      y2="103.086"
      gradientUnits="userSpaceOnUse"
    >
      <stop stop-color="#5B68DF" />
      <stop offset="1" stop-color="#FCB336" />
    </linearGradient>
    <linearGradient
      id="paint1_linear_83_7529"
      x1="7.71012"
      y1="10.4132"
      x2="126.935"
      y2="103.086"
      gradientUnits="userSpaceOnUse"
    >
      <stop stop-color="#5B68DF" />
      <stop offset="1" stop-color="#FCB336" />
    </linearGradient>
    <linearGradient
      id="paint2_linear_83_7529"
      x1="7.71012"
      y1="10.4132"
      x2="126.935"
      y2="103.086"
      gradientUnits="userSpaceOnUse"
    >
      <stop stop-color="#5B68DF" />
      <stop offset="1" stop-color="#FCB336" />
    </linearGradient>
    <linearGradient
      id="paint3_linear_83_7529"
      x1="7.71012"
      y1="10.4132"
      x2="126.935"
      y2="103.086"
      gradientUnits="userSpaceOnUse"
    >
      <stop stop-color="#5B68DF" />
      <stop offset="1" stop-color="#FCB336" />
    </linearGradient>
    <linearGradient
      id="paint4_linear_83_7529"
      x1="7.71012"
      y1="10.4132"
      x2="126.935"
      y2="103.086"
      gradientUnits="userSpaceOnUse"
    >
      <stop stop-color="#5B68DF" />
      <stop offset="1" stop-color="#FCB336" />
    </linearGradient>
  </defs>
</svg>
